  0
SECTION
  2
HEADER
  9
$ACADVER
  1
AC1009
  9
$FILLMODE
 70
 0
  9
$SPLFRAME
 70
 1
  9
$EXTMIN
 10
0
 20
0
 30
0.0
  9
$EXTMAX
 10
1058.33
 20
1058.33
 30
0.0
  0
ENDSEC
  0
SECTION
  2
TABLES
  0
TABLE
  2
LAYER
 70
1
  0
LAYER
  2
0
 70
     0
 62
     7
  6
CONTINUOUS
  0
ENDTAB
  0
ENDSEC
  0
SECTION
  2
ENTITIES
  0
LINE
  8
0
 62
     0
 10
0.0950846
 20
57.4075
 30
0.0
 11
95.3452
 21
57.4075
 31
0.0
  0
LINE
  8
0
 62
     0
 10
95.3452
 20
57.4075
 30
0.0
 11
95.3452
 21
0.257693
 31
0.0
  0
LINE
  8
0
 62
     0
 10
95.3452
 20
0.257693
 30
0.0
 11
0.0950846
 21
0.257693
 31
0.0
  0
LINE
  8
0
 62
     0
 10
0.0950846
 20
0.257693
 30
0.0
 11
0.0950846
 21
57.4075
 31
0.0
  0
LINE
  8
0
 62
     0
 10
59.7697
 20
16.7831
 30
0.0
 11
59.7697
 21
12.0826
 31
0.0
  0
LINE
  8
0
 62
     0
 10
59.7697
 20
12.0826
 30
0.0
 11
51.0949
 21
12.0826
 31
0.0
  0
LINE
  8
0
 62
     0
 10
51.0949
 20
12.0826
 30
0.0
 11
51.0949
 21
15.3128
 31
0.0
  0
LINE
  8
0
 62
     0
 10
51.0949
 20
15.3128
 30
0.0
 11
49.3695
 21
15.3128
 31
0.0
  0
LINE
  8
0
 62
     0
 10
49.3695
 20
15.3128
 30
0.0
 11
49.3695
 21
16.2333
 31
0.0
  0
LINE
  8
0
 62
     0
 10
49.3695
 20
16.2333
 30
0.0
 11
46.0692
 21
16.2333
 31
0.0
  0
LINE
  8
0
 62
     0
 10
46.0692
 20
16.2333
 30
0.0
 11
46.0692
 21
15.3128
 31
0.0
  0
LINE
  8
0
 62
     0
 10
46.0692
 20
15.3128
 30
0.0
 11
44.3438
 21
15.3128
 31
0.0
  0
LINE
  8
0
 62
     0
 10
44.3438
 20
15.3128
 30
0.0
 11
44.3438
 21
12.0826
 31
0.0
  0
LINE
  8
0
 62
     0
 10
44.3438
 20
12.0826
 30
0.0
 11
43.5197
 21
12.0826
 31
0.0
  0
LINE
  8
0
 62
     0
 10
43.5197
 20
12.0826
 30
0.0
 11
43.5197
 21
9.28384
 31
0.0
  0
LINE
  8
0
 62
     0
 10
43.5197
 20
9.28384
 30
0.0
 11
44.3438
 21
9.28384
 31
0.0
  0
LINE
  8
0
 62
     0
 10
44.3438
 20
9.28384
 30
0.0
 11
44.3438
 21
3.01377
 31
0.0
  0
LINE
  8
0
 62
     0
 10
44.3438
 20
3.01377
 30
0.0
 11
46.0692
 21
3.01377
 31
0.0
  0
LINE
  8
0
 62
     0
 10
46.0692
 20
3.01377
 30
0.0
 11
46.0692
 21
2.03261
 31
0.0
  0
LINE
  8
0
 62
     0
 10
46.0692
 20
2.03261
 30
0.0
 11
49.3695
 21
2.03261
 31
0.0
  0
LINE
  8
0
 62
     0
 10
49.3695
 20
2.03261
 30
0.0
 11
49.3695
 21
3.01377
 31
0.0
  0
LINE
  8
0
 62
     0
 10
49.3695
 20
3.01377
 30
0.0
 11
51.0949
 21
3.01377
 31
0.0
  0
LINE
  8
0
 62
     0
 10
51.0949
 20
3.01377
 30
0.0
 11
51.0949
 21
7.48273
 31
0.0
  0
LINE
  8
0
 62
     0
 10
51.0949
 20
7.48273
 30
0.0
 11
59.7697
 21
7.48273
 31
0.0
  0
LINE
  8
0
 62
     0
 10
59.7697
 20
7.48273
 30
0.0
 11
59.7697
 21
2.78364
 31
0.0
  0
LINE
  8
0
 62
     0
 10
59.7697
 20
2.78364
 30
0.0
 11
73.769
 21
2.78364
 31
0.0
  0
LINE
  8
0
 62
     0
 10
73.769
 20
2.78364
 30
0.0
 11
73.769
 21
7.48273
 31
0.0
  0
LINE
  8
0
 62
     0
 10
73.769
 20
7.48273
 30
0.0
 11
82.4438
 21
7.48273
 31
0.0
  0
LINE
  8
0
 62
     0
 10
82.4438
 20
7.48273
 30
0.0
 11
82.4438
 21
3.01377
 31
0.0
  0
LINE
  8
0
 62
     0
 10
82.4438
 20
3.01377
 30
0.0
 11
84.1692
 21
3.01377
 31
0.0
  0
LINE
  8
0
 62
     0
 10
84.1692
 20
3.01377
 30
0.0
 11
84.1692
 21
2.03261
 31
0.0
  0
LINE
  8
0
 62
     0
 10
84.1692
 20
2.03261
 30
0.0
 11
87.4695
 21
2.03261
 31
0.0
  0
LINE
  8
0
 62
     0
 10
87.4695
 20
2.03261
 30
0.0
 11
87.4695
 21
3.01377
 31
0.0
  0
LINE
  8
0
 62
     0
 10
87.4695
 20
3.01377
 30
0.0
 11
89.1949
 21
3.01377
 31
0.0
  0
LINE
  8
0
 62
     0
 10
89.1949
 20
3.01377
 30
0.0
 11
89.1949
 21
9.28384
 31
0.0
  0
LINE
  8
0
 62
     0
 10
89.1949
 20
9.28384
 30
0.0
 11
90.019
 21
9.28384
 31
0.0
  0
LINE
  8
0
 62
     0
 10
90.019
 20
9.28384
 30
0.0
 11
90.019
 21
12.0826
 31
0.0
  0
LINE
  8
0
 62
     0
 10
90.019
 20
12.0826
 30
0.0
 11
89.1949
 21
12.0826
 31
0.0
  0
LINE
  8
0
 62
     0
 10
89.1949
 20
12.0826
 30
0.0
 11
89.1949
 21
15.3128
 31
0.0
  0
LINE
  8
0
 62
     0
 10
89.1949
 20
15.3128
 30
0.0
 11
87.4695
 21
15.3128
 31
0.0
  0
LINE
  8
0
 62
     0
 10
87.4695
 20
15.3128
 30
0.0
 11
87.4695
 21
16.2333
 31
0.0
  0
LINE
  8
0
 62
     0
 10
87.4695
 20
16.2333
 30
0.0
 11
84.1692
 21
16.2333
 31
0.0
  0
LINE
  8
0
 62
     0
 10
84.1692
 20
16.2333
 30
0.0
 11
84.1692
 21
15.3128
 31
0.0
  0
LINE
  8
0
 62
     0
 10
84.1692
 20
15.3128
 30
0.0
 11
82.4438
 21
15.3128
 31
0.0
  0
LINE
  8
0
 62
     0
 10
82.4438
 20
15.3128
 30
0.0
 11
82.4438
 21
12.0826
 31
0.0
  0
LINE
  8
0
 62
     0
 10
82.4438
 20
12.0826
 30
0.0
 11
73.769
 21
12.0826
 31
0.0
  0
LINE
  8
0
 62
     0
 10
73.769
 20
12.0826
 30
0.0
 11
73.769
 21
16.7831
 31
0.0
  0
LINE
  8
0
 62
     0
 10
73.769
 20
16.7831
 30
0.0
 11
59.7697
 21
16.7831
 31
0.0
  0
LINE
  8
0
 62
     0
 10
78.8197
 20
35.833
 30
0.0
 11
92.819
 21
35.833
 31
0.0
  0
LINE
  8
0
 62
     0
 10
92.819
 20
35.833
 30
0.0
 11
92.819
 21
21.8336
 31
0.0
  0
LINE
  8
0
 62
     0
 10
92.819
 20
21.8336
 30
0.0
 11
78.8197
 21
21.8336
 31
0.0
  0
LINE
  8
0
 62
     0
 10
78.8197
 20
21.8336
 30
0.0
 11
78.8197
 21
35.833
 31
0.0
  0
LINE
  8
0
 62
     0
 10
2.61965
 20
54.8831
 30
0.0
 11
16.6192
 21
54.8831
 31
0.0
  0
LINE
  8
0
 62
     0
 10
16.6192
 20
54.8831
 30
0.0
 11
16.6192
 21
40.8838
 31
0.0
  0
LINE
  8
0
 62
     0
 10
16.6192
 20
40.8838
 30
0.0
 11
2.61965
 21
40.8838
 31
0.0
  0
LINE
  8
0
 62
     0
 10
2.61965
 20
40.8838
 30
0.0
 11
2.61965
 21
54.8831
 31
0.0
  0
LINE
  8
0
 62
     0
 10
21.6697
 20
54.8831
 30
0.0
 11
35.669
 21
54.8831
 31
0.0
  0
LINE
  8
0
 62
     0
 10
35.669
 20
54.8831
 30
0.0
 11
35.669
 21
40.8838
 31
0.0
  0
LINE
  8
0
 62
     0
 10
35.669
 20
40.8838
 30
0.0
 11
21.6697
 21
40.8838
 31
0.0
  0
LINE
  8
0
 62
     0
 10
21.6697
 20
40.8838
 30
0.0
 11
21.6697
 21
54.8831
 31
0.0
  0
LINE
  8
0
 62
     0
 10
40.7197
 20
54.8831
 30
0.0
 11
54.719
 21
54.8831
 31
0.0
  0
LINE
  8
0
 62
     0
 10
54.719
 20
54.8831
 30
0.0
 11
54.719
 21
40.8838
 31
0.0
  0
LINE
  8
0
 62
     0
 10
54.719
 20
40.8838
 30
0.0
 11
40.7197
 21
40.8838
 31
0.0
  0
LINE
  8
0
 62
     0
 10
40.7197
 20
40.8838
 30
0.0
 11
40.7197
 21
54.8831
 31
0.0
  0
LINE
  8
0
 62
     0
 10
59.7697
 20
54.8831
 30
0.0
 11
73.769
 21
54.8831
 31
0.0
  0
LINE
  8
0
 62
     0
 10
73.769
 20
54.8831
 30
0.0
 11
73.769
 21
40.8838
 31
0.0
  0
LINE
  8
0
 62
     0
 10
73.769
 20
40.8838
 30
0.0
 11
59.7697
 21
40.8838
 31
0.0
  0
LINE
  8
0
 62
     0
 10
59.7697
 20
40.8838
 30
0.0
 11
59.7697
 21
54.8831
 31
0.0
  0
ENDSEC
  0
EOF
